# xmcd
#
# Track frame offsets:
# 150
# 12181
# 35236
# 52860
# 73015
# 92272
# 104287
# 120204
# 146799
# 158094
# 169567
#
# Disc length: 2593 seconds
#
#
# Revision: 0
# Processed by: cddbd v1.5.2PL0 Copyright (c) Steve Scherf et al.
# Submitted via: FreeRIP 2.943 
#
DISCID=820a1f0b
DTITLE=Innes Sibun - Farmhouse Blues
DYEAR=1900
DGENRE=Blues
TTITLE0=Midlife Crisis Blues
TTITLE1=Sonner or Later
TTITLE2=All your Love
TTITLE3=I must be crazy
TTITLE4=I'm ready
TTITLE5=Station Blues
TTITLE6=Natural High
TTITLE7=So tired of living
TTITLE8=Speak to me
TTITLE9=Son't you lie to me
TTITLE10=Desert rain
EXTD=
EXTT0=
EXTT1=
EXTT2=
EXTT3=
EXTT4=
EXTT5=
EXTT6=
EXTT7=
EXTT8=
EXTT9=
EXTT10=
PLAYORDER=
